<?xml version="1.0" encoding="UTF-8" standalone="no"?>
<!-- Created with Inkscape (http://www.inkscape.org/) -->

<svg
   width="128"
   height="128"
   viewBox="0 0 33.866667 33.866666"
   version="1.1"
   id="svg5"
   inkscape:version="1.2.1 (9c6d41e410, 2022-07-14, custom)"
   sodipodi:docname="candy-cane.svg"
   inkscape:export-filename="candy-cane.png"
   inkscape:export-xdpi="96"
   inkscape:export-ydpi="96"
   xmlns:inkscape="http://www.inkscape.org/namespaces/inkscape"
   xmlns:sodipodi="http://sodipodi.sourceforge.net/DTD/sodipodi-0.dtd"
   xmlns="http://www.w3.org/2000/svg"
   xmlns:svg="http://www.w3.org/2000/svg">
  <sodipodi:namedview
     id="namedview7"
     pagecolor="#ffffff"
     bordercolor="#666666"
     borderopacity="1.0"
     inkscape:showpageshadow="2"
     inkscape:pageopacity="0.0"
     inkscape:pagecheckerboard="0"
     inkscape:deskcolor="#d1d1d1"
     inkscape:document-units="mm"
     showgrid="false"
     inkscape:zoom="1.4734708"
     inkscape:cx="-72.617659"
     inkscape:cy="73.296329"
     inkscape:window-width="1920"
     inkscape:window-height="1007"
     inkscape:window-x="0"
     inkscape:window-y="0"
     inkscape:window-maximized="1"
     inkscape:current-layer="layer1" />
  <defs
     id="defs2" />
  <g
     inkscape:label="Layer 1"
     inkscape:groupmode="layer"
     id="layer1">
    <rect
       style="fill:#ffffff;stroke-width:0.036523"
       id="rect548"
       width="34.395832"
       height="34.395832"
       x="-0.26458332"
       y="-0.26458332" />
    <rect
       style="fill:#d40000;stroke-width:0.0196433"
       id="rect234"
       width="37.864082"
       height="4.2333331"
       x="3.9720547e-15"
       y="-25.399998"
       transform="matrix(0.89442721,0.44721356,0,1,0,0)" />
    <rect
       style="fill:#d40000;stroke-width:0.0196433"
       id="rect234-3"
       width="37.864082"
       height="4.2333331"
       x="0"
       y="-16.933332"
       transform="matrix(0.89442721,0.44721356,0,1,0,0)" />
    <rect
       style="fill:#d40000;stroke-width:0.0196433"
       id="rect234-6"
       width="37.864082"
       height="4.2333331"
       x="0"
       y="-8.4666662"
       transform="matrix(0.89442721,0.44721356,0,1,0,0)" />
    <rect
       style="fill:#d40000;stroke-width:0.0196433"
       id="rect234-3-7"
       width="37.864082"
       height="4.2333331"
       x="0"
       y="0"
       transform="matrix(0.89442721,0.44721356,0,1,0,0)" />
    <rect
       style="fill:#d40000;stroke-width:0.0196433"
       id="rect234-5"
       width="37.864082"
       height="4.2333331"
       x="0"
       y="8.4666653"
       transform="matrix(0.89442721,0.44721356,0,1,0,0)" />
    <rect
       style="fill:#d40000;stroke-width:0.0196433"
       id="rect234-3-3"
       width="37.864082"
       height="4.2333331"
       x="0"
       y="16.933332"
       transform="matrix(0.89442721,0.44721356,0,1,0,0)" />
    <rect
       style="fill:#d40000;stroke-width:0.0196433"
       id="rect234-6-5"
       width="37.864082"
       height="4.2333331"
       x="0"
       y="25.4"
       transform="matrix(0.89442721,0.44721356,0,1,0,0)" />
    <rect
       style="fill:#d40000;stroke-width:0.0196433"
       id="rect234-3-7-6"
       width="37.864082"
       height="4.2333331"
       x="0"
       y="33.866669"
       transform="matrix(0.89442721,0.44721356,0,1,0,0)" />
  </g>
</svg>
